<svg width="749" height="161" viewBox="0 0 749 161" fill="none" xmlns="http://www.w3.org/2000/svg">
<path d="M17 123L112.816 75L176 40L261 45L292.5 17L329.5 13L373.5 45L414 32L437.5 58L467.5 102.5L534 123L552 58L614.5 32L657.5 67.5L685.583 102.5L732 123" stroke="url(#paint0_linear_161_45)" stroke-width="8"/>
<path d="M13.875 29.8125H65.375C72.875 29.8125 79.375 30.625 84.875 32.25C90.375 33.875 94.9375 36.2292 98.5625 39.3125C102.188 42.3542 104.875 46.0833 106.625 50.5C108.417 54.9167 109.312 59.8958 109.312 65.4375C109.312 70.6458 108.438 75.4583 106.688 79.875C104.938 84.2917 102.25 88.125 98.625 91.375C95.0417 94.5833 90.5 97.1042 85 98.9375C79.5 100.729 73 101.625 65.5 101.625L33.6875 101.562V127.5H13.875V29.8125ZM65.875 84.4375C69.625 84.4375 72.8958 84 75.6875 83.125C78.5208 82.2083 80.875 80.9375 82.75 79.3125C84.6667 77.6458 86.0833 75.6458 87 73.3125C87.9583 70.9375 88.4375 68.3125 88.4375 65.4375C88.4375 59.6458 86.5417 55.1458 82.75 51.9375C79 48.6875 73.375 47.0625 65.875 47.0625H33.6875V84.4375H65.875Z" fill="#6C76E6"/>
<path d="M125.188 90.375C125.188 85.375 126.208 80.6042 128.25 76.0625C130.292 71.4792 133.229 67.4375 137.062 63.9375C140.896 60.4375 145.583 57.6458 151.125 55.5625C156.708 53.4792 163.042 52.4375 170.125 52.4375C177.167 52.4375 183.5 53.5 189.125 55.625C194.792 57.7083 199.583 60.5833 203.5 64.25C207.458 67.9167 210.479 72.2292 212.562 77.1875C214.688 82.1458 215.75 87.4583 215.75 93.125C215.75 93.8333 215.729 94.6042 215.688 95.4375C215.688 96.2292 215.646 96.9583 215.562 97.625H145.812C146.604 99.8333 147.875 101.854 149.625 103.688C151.417 105.521 153.646 107.104 156.312 108.438C158.979 109.771 162.062 110.812 165.562 111.562C169.062 112.271 172.938 112.625 177.188 112.625C181.438 112.625 185.667 112.188 189.875 111.312C194.083 110.396 198.104 109.25 201.938 107.875L208.188 122C205.771 123.125 203.312 124.125 200.812 125C198.354 125.833 195.771 126.542 193.062 127.125C190.396 127.667 187.583 128.083 184.625 128.375C181.708 128.667 178.625 128.812 175.375 128.812C167.083 128.812 159.812 127.812 153.562 125.812C147.312 123.812 142.083 121.083 137.875 117.625C133.667 114.167 130.5 110.104 128.375 105.438C126.25 100.771 125.188 95.75 125.188 90.375ZM196.125 83.1875C195.458 81.1458 194.417 79.25 193 77.5C191.625 75.7083 189.896 74.1667 187.812 72.875C185.729 71.5417 183.312 70.5 180.562 69.75C177.812 69 174.792 68.625 171.5 68.625C168 68.625 164.812 69.0208 161.938 69.8125C159.062 70.6042 156.542 71.6667 154.375 73C152.208 74.3333 150.396 75.875 148.938 77.625C147.521 79.375 146.479 81.2292 145.812 83.1875H196.125ZM232.188 104.25C232.188 100.708 232.958 97.4792 234.5 94.5625C236.042 91.6458 238.354 89.1458 241.438 87.0625C244.521 84.9375 248.354 83.3125 252.938 82.1875C257.562 81.0208 262.938 80.4375 269.062 80.4375C273.604 80.4375 278.375 80.7708 283.375 81.4375C288.417 82.1042 293.604 83.125 298.938 84.5C298.729 82.1667 298.021 80.0208 296.812 78.0625C295.604 76.0625 293.917 74.3542 291.75 72.9375C289.625 71.4792 287.042 70.3542 284 69.5625C281 68.7708 277.583 68.375 273.75 68.375C271.667 68.375 269.375 68.5 266.875 68.75C264.375 69 261.792 69.375 259.125 69.875C256.458 70.375 253.812 71 251.188 71.75C248.604 72.5 246.188 73.3958 243.938 74.4375L238.312 59.25C241.104 58.25 244.083 57.3333 247.25 56.5C250.458 55.6667 253.729 54.9583 257.062 54.375C260.396 53.75 263.729 53.2708 267.062 52.9375C270.396 52.6042 273.625 52.4375 276.75 52.4375C290.542 52.4375 300.792 55.9583 307.5 63C314.208 70.0417 317.562 80.8333 317.562 95.375V127.5H299.062V120.562C297.146 121.688 295.042 122.75 292.75 123.75C290.5 124.75 288.042 125.625 285.375 126.375C282.708 127.125 279.833 127.708 276.75 128.125C273.708 128.583 270.479 128.812 267.062 128.812C261.312 128.812 256.25 128.188 251.875 126.938C247.542 125.688 243.917 123.958 241 121.75C238.083 119.542 235.875 116.958 234.375 114C232.917 111 232.188 107.75 232.188 104.25ZM251.688 103.625C251.688 104.833 252 106 252.625 107.125C253.25 108.208 254.25 109.188 255.625 110.062C257 110.896 258.75 111.583 260.875 112.125C263.042 112.625 265.646 112.875 268.688 112.875C271.938 112.875 275.083 112.583 278.125 112C281.167 111.417 284 110.646 286.625 109.688C289.25 108.729 291.625 107.625 293.75 106.375C295.875 105.125 297.646 103.833 299.062 102.5V99.25C296.229 98.4583 293.417 97.7917 290.625 97.25C287.875 96.7083 285.229 96.2917 282.688 96C280.188 95.6667 277.812 95.4375 275.562 95.3125C273.354 95.1875 271.417 95.125 269.75 95.125C266.292 95.125 263.417 95.3542 261.125 95.8125C258.833 96.2708 256.979 96.8958 255.562 97.6875C254.146 98.4375 253.146 99.3333 252.562 100.375C251.979 101.417 251.688 102.5 251.688 103.625ZM342.125 23.8125H360.625V85.0625L395.125 53.75H423.438L384.875 88.25L425.875 127.5H398.125L370.688 100.938L360.625 109.938V127.5H342.125V23.8125ZM434.562 90.375C434.562 85.375 435.583 80.6042 437.625 76.0625C439.667 71.4792 442.604 67.4375 446.438 63.9375C450.271 60.4375 454.958 57.6458 460.5 55.5625C466.083 53.4792 472.417 52.4375 479.5 52.4375C486.542 52.4375 492.875 53.5 498.5 55.625C504.167 57.7083 508.958 60.5833 512.875 64.25C516.833 67.9167 519.854 72.2292 521.938 77.1875C524.062 82.1458 525.125 87.4583 525.125 93.125C525.125 93.8333 525.104 94.6042 525.062 95.4375C525.062 96.2292 525.021 96.9583 524.938 97.625H455.188C455.979 99.8333 457.25 101.854 459 103.688C460.792 105.521 463.021 107.104 465.688 108.438C468.354 109.771 471.438 110.812 474.938 111.562C478.438 112.271 482.312 112.625 486.562 112.625C490.812 112.625 495.042 112.188 499.25 111.312C503.458 110.396 507.479 109.25 511.312 107.875L517.562 122C515.146 123.125 512.688 124.125 510.188 125C507.729 125.833 505.146 126.542 502.438 127.125C499.771 127.667 496.958 128.083 494 128.375C491.083 128.667 488 128.812 484.75 128.812C476.458 128.812 469.188 127.812 462.938 125.812C456.688 123.812 451.458 121.083 447.25 117.625C443.042 114.167 439.875 110.104 437.75 105.438C435.625 100.771 434.562 95.75 434.562 90.375ZM505.5 83.1875C504.833 81.1458 503.792 79.25 502.375 77.5C501 75.7083 499.271 74.1667 497.188 72.875C495.104 71.5417 492.688 70.5 489.938 69.75C487.188 69 484.167 68.625 480.875 68.625C477.375 68.625 474.188 69.0208 471.312 69.8125C468.438 70.6042 465.917 71.6667 463.75 73C461.583 74.3333 459.771 75.875 458.312 77.625C456.896 79.375 455.854 81.2292 455.188 83.1875H505.5ZM545.062 53.75H563.562V60C568.479 57.2083 573.167 55.25 577.625 54.125C582.125 53 586.521 52.4375 590.812 52.4375C596.438 52.4375 601.646 53.2708 606.438 54.9375C611.229 56.5625 615.375 59 618.875 62.25C622.375 65.5 625.104 69.5625 627.062 74.4375C629.062 79.2708 630.062 84.875 630.062 91.25V127.5H611.625V94.25C611.625 90.2083 611.042 86.6042 609.875 83.4375C608.75 80.2292 607.104 77.5417 604.938 75.375C602.812 73.1667 600.208 71.5 597.125 70.375C594.083 69.2083 590.667 68.625 586.875 68.625C584.875 68.625 582.812 68.8333 580.688 69.25C578.604 69.6667 576.542 70.2708 574.5 71.0625C572.5 71.8125 570.562 72.7708 568.688 73.9375C566.812 75.0625 565.104 76.3542 563.562 77.8125V127.5H545.062V53.75ZM647.125 90.9375C647.125 85.0625 648.229 79.7708 650.438 75.0625C652.646 70.3125 655.688 66.2708 659.562 62.9375C663.479 59.5625 668.104 56.9792 673.438 55.1875C678.812 53.3542 684.625 52.4375 690.875 52.4375C693.542 52.4375 696.167 52.6042 698.75 52.9375C701.375 53.2708 703.875 53.7292 706.25 54.3125C708.667 54.8958 710.917 55.6042 713 56.4375C715.125 57.2292 717 58.1042 718.625 59.0625V23.8125H737.125V127.5H718.625V120.562C717 121.688 715.083 122.75 712.875 123.75C710.667 124.75 708.292 125.625 705.75 126.375C703.208 127.125 700.562 127.708 697.812 128.125C695.104 128.583 692.417 128.812 689.75 128.812C683.5 128.812 677.75 127.896 672.5 126.062C667.292 124.229 662.812 121.646 659.062 118.312C655.312 114.979 652.375 111 650.25 106.375C648.167 101.708 647.125 96.5625 647.125 90.9375ZM666.562 90.9375C666.562 93.8958 667.146 96.6875 668.312 99.3125C669.521 101.938 671.229 104.25 673.438 106.25C675.688 108.208 678.375 109.771 681.5 110.938C684.667 112.062 688.208 112.625 692.125 112.625C694.625 112.625 697.125 112.396 699.625 111.938C702.125 111.438 704.521 110.75 706.812 109.875C709.146 109 711.312 107.938 713.312 106.688C715.354 105.438 717.125 104.042 718.625 102.5V76.9375C716.75 75.4375 714.771 74.1667 712.688 73.125C710.604 72.0833 708.479 71.2292 706.312 70.5625C704.146 69.8958 701.958 69.4167 699.75 69.125C697.542 68.7917 695.396 68.625 693.312 68.625C689.062 68.625 685.271 69.2083 681.938 70.375C678.646 71.5 675.854 73.0625 673.562 75.0625C671.312 77.0625 669.583 79.4167 668.375 82.125C667.167 84.8333 666.562 87.7708 666.562 90.9375Z" fill="white"/>
<defs>
<linearGradient id="paint0_linear_161_45" x1="431.351" y1="-59.5" x2="431.351" y2="154" gradientUnits="userSpaceOnUse">
<stop stop-color="#BD0000"/>
<stop offset="0.3" stop-color="#C78B07"/>
<stop offset="0.65" stop-color="#FFC745"/>
<stop offset="1" stop-color="#39C16F"/>
</linearGradient>
</defs>
</svg>
